# xmcd
#
# Track frame offsets:
#	150
#	11507
#	24029
#	54236
#	83346
#	102555
#	127802
#	147727
#	167447
#	178341
#	200703
#	217390
#	239670
#	276049
#	300921
#
# Disc length: 4433 seconds
#
# Revision: 1
# Processed by: cddbd v1.5.2PL0 Copyright (c) Steve Scherf et al.
# Submitted via: EasyCDDAExtractor 16.1.0.1
#
DISCID=cc114f0f
DTITLE=Led Zeppelin - The Best
DYEAR=1900
DGENRE=Country
TTITLE0=Communication Breakdown
TTITLE1=Good Times Bad Times
TTITLE2=Babe I Gonna Leave You
TTITLE3=Dazed And Confused
TTITLE4=Heartbreaker
TTITLE5=Whole Lotta Love
TTITLE6=Ramble On
TTITLE7=Moby Dick
TTITLE8=Immigrant Song
TTITLE9=Gallows Pole
TTITLE10=Rock And Roll
TTITLE11=Black Dog
TTITLE12=Stairway To Heaven
TTITLE13=The Song Remains The Same
TTITLE14=No Quarter
EXTD=
EXTT0=
EXTT1=
EXTT2=
EXTT3=
EXTT4=
EXTT5=
EXTT6=
EXTT7=
EXTT8=
EXTT9=
EXTT10=
EXTT11=
EXTT12=
EXTT13=
EXTT14=
PLAYORDER=
